# xmcd
#
# Track frame offsets:
#	150
#	22016
#	55429
#	71414
#	83689
#	94896
#	128846
#	147111
#	164739
#	187494
#	200101
#	227808
#	265344
#	290590
#	318614
#	339542
#
# Disc length: 4796 seconds
#
# Revision: 0
# Processed by: cddbd v1.5.2PL0 Copyright (c) Steve Scherf et al.
# Submitted via: audiograbber 1.83.01
#
DISCID=0412ba10
DTITLE=B.B. King - Live At Apollo and There Must Be A Better World
DYEAR=1900
DGENRE=Blues
TTITLE0=1 - When love comes to town
TTITLE1=2 - Sweet sixteen
TTITLE2=3 - The thrill is gone
TTITLE3=4 - Ain't nobody's bizness
TTITLE4=5 - Paying the cost to be the boss
TTITLE5=6 - All over again
TTITLE6=7 - Nightlife
TTITLE7=8 - Since I met you baby
TTITLE8=9 - Guess who
TTITLE9=10 - Peace to the world
TTITLE10=Victim
TTITLE11=More More More
TTITLE12=You're Going With Me
TTITLE13=Life Ain't Nothing But A Party
TTITLE14=Born Again Human
TTITLE15=There Must be A Better World Somewhere
EXTD=
EXTT0=
EXTT1=
EXTT2=
EXTT3=
EXTT4=
EXTT5=
EXTT6=
EXTT7=
EXTT8=
EXTT9=
EXTT10=
EXTT11=
EXTT12=
EXTT13=
EXTT14=
EXTT15=
PLAYORDER=
